<?xml version="1.0" encoding="UTF-8" standalone="no"?>
<svg xmlns="http://www.w3.org/2000/svg" xmlns:xlink="http://www.w3.org/1999/xlink" width="200" height="200" viewBox="0 0 200 200">
  <defs>
    <linearGradient id="gradient" x1="0%" y1="0%" x2="100%" y2="100%">
      <stop offset="0%" style="stop-color:#4A8FE7;stop-opacity:1" />
      <stop offset="100%" style="stop-color:#1E3A8A;stop-opacity:1" />
    </linearGradient>
  </defs>
  
  <!-- Base circle -->
  <circle cx="100" cy="100" r="90" fill="url(#gradient)" />
  
  <!-- Crescent moon shape -->
  <path d="M100 20c44.183 0 80 35.817 80 80s-35.817 80-80 80c-44.183 0-80-35.817-80-80s35.817-80 80-80zm0 30c-27.614 0-50 22.386-50 50s22.386 50 50 50z" fill="#FFFFFF" />
  
  <!-- Text for ILMBUDS -->
  <text x="100" y="120" font-family="Arial, sans-serif" font-weight="bold" font-size="24" text-anchor="middle" fill="#FFFFFF">ILMBUDS</text>
  
  <!-- Star -->
  <path d="M100 40 l10 25 l25 0 l-20 15 l10 25 l-25 -15 l-25 15 l10 -25 l-20 -15 l25 0 z" fill="#FFD700" />
</svg>