<?xml version="1.0" encoding="UTF-8" standalone="no"?>
<svg xmlns="http://www.w3.org/2000/svg" width="500" height="300" viewBox="0 0 500 300">
  <rect width="500" height="300" fill="#f5f5dc"/>
  <path d="M100,200 C100,100 400,100 400,200" fill="none" stroke="#8B4513" stroke-width="2"/>
  <circle cx="150" cy="120" r="40" fill="#D2B48C"/>
  <circle cx="350" cy="120" r="40" fill="#D2B48C"/>
  <g transform="translate(130, 95)">
    <ellipse cx="20" cy="20" rx="20" ry="25" fill="#F5DEB3"/>
    <circle cx="10" cy="15" r="3" fill="#000"/>
    <circle cx="30" cy="15" r="3" fill="#000"/>
    <path d="M10,30 Q20,40 30,30" fill="none" stroke="#000" stroke-width="2"/>
  </g>
  <g transform="translate(330, 95)">
    <ellipse cx="20" cy="20" rx="20" ry="25" fill="#F5DEB3"/>
    <circle cx="10" cy="15" r="3" fill="#000"/>
    <circle cx="30" cy="15" r="3" fill="#000"/>
    <path d="M10,30 Q20,40 30,30" fill="none" stroke="#000" stroke-width="2"/>
  </g>
  <path d="M250,220 Q250,170 220,170 L180,170 L180,230 L220,230 Q250,230 250,180" fill="#8B4513"/>
  <path d="M250,220 Q250,170 280,170 L320,170 L320,230 L280,230 Q250,230 250,180" fill="#8B4513"/>
  <text x="250" y="280" font-family="Arial" font-size="16" text-anchor="middle" fill="#8B4513">Choose your friends wisely</text>
</svg>