<?xml version="1.0" encoding="UTF-8" standalone="no"?>
<svg xmlns="http://www.w3.org/2000/svg" width="120" height="120" viewBox="0 0 120 120">
  <g fill="none" fill-rule="evenodd">
    <!-- Left Minaret -->
    <path fill="#FFFFFF" d="M30,10 L40,10 L40,35 L35,45 L30,35 Z"/>
    <rect fill="#000000" x="33" y="15" width="4" height="4"/>
    <rect fill="#000000" x="33" y="25" width="4" height="4"/>
    
    <!-- Right Minaret -->
    <path fill="#FFFFFF" d="M80,10 L90,10 L90,35 L85,45 L80,35 Z"/>
    <rect fill="#000000" x="83" y="15" width="4" height="4"/>
    <rect fill="#000000" x="83" y="25" width="4" height="4"/>
    
    <!-- Kaaba Main Structure -->
    <rect fill="#333333" x="35" y="50" width="50" height="50"/>
    
    <!-- Gold Band -->
    <rect fill="#FFC107" x="35" y="60" width="50" height="8"/>
    
    <!-- Kiswa (Black Cloth) with Drape Pattern -->
    <path fill="#000000" d="M35,68 L45,68 L40,78 L35,78 Z"/>
    <path fill="#000000" d="M45,68 L55,68 L50,78 L45,78 Z"/>
    <path fill="#000000" d="M55,68 L65,68 L60,78 L55,78 Z"/>
    <path fill="#000000" d="M65,68 L75,68 L70,78 L65,78 Z"/>
    <path fill="#000000" d="M75,68 L85,68 L80,78 L75,78 Z"/>
    
    <!-- Kiswa Bottom Waves -->
    <path fill="#FFFFFF" d="M35,78 L40,78 L45,90 L40,95 L35,90 Z" opacity="0.7"/>
    <path fill="#FFFFFF" d="M45,78 L50,78 L55,90 L50,95 L45,90 Z" opacity="0.7"/>
    <path fill="#FFFFFF" d="M55,78 L60,78 L65,90 L60,95 L55,90 Z" opacity="0.7"/>
    <path fill="#FFFFFF" d="M65,78 L70,78 L75,90 L70,95 L65,90 Z" opacity="0.7"/>
    <path fill="#FFFFFF" d="M75,78 L80,78 L85,90 L80,95 L75,90 Z" opacity="0.7"/>
  </g>
</svg>